/* XPM */
static char * afa_xpm[] = {
"32 32 3 1",
" 	c #FFFFFF",
".	c #000000",
"+	c #FF0000",
"                                ",
"            ........            ",
"         ..............         ",
"        ................        ",
"      ....................      ",
"     .......        .......     ",
"    ......            ......    ",
"    .....              .....    ",
"   .....++++            .....   ",
"  .....+++++++           .....  ",
"  .... ++++++++++        +....  ",
"  .... ++++++++++++  +++++....  ",
" ....  ++++++++++++++++++++.... ",
" ....  ++++++++++++++++++++.... ",
" ....  ++++++++++++++++++++.... ",
" ....  ++++++++++++++++++++.... ",
" ....  +++++ ....++++++++++.... ",
" ....   ++   ......+++......... ",
" ....   ++   ............. .... ",
" ....   +++  ...........   .... ",
"  ....  +++  ..........   ....  ",
"  ....   ++   ..  ...     ....  ",
"  .....  ++   ..         .....  ",
"   ..... +++   ..       .....   ",
"    ..... ++   ..      .....    ",
"    ......++    ..    ......    ",
"     .......    ..  .......     ",
"      ....................      ",
"        ................        ",
"         ..............         ",
"            ........            ",
"                                "};
