/* XPM */
static char *_5a619dcbef2427cbe87f901acc297e22zp0WEc42jWLo7fr[] = {
/* columns rows colors chars-per-pixel */
"32 32 5 1 ",
"  c #0E1514",
". c #623423",
"X c #764D26",
"o c #9E7631",
"O c #BDA658",
/* pixels */
"OOOOOOOOOOOOOOOOo OOOOOOOOOOOOOO",
"oOoOoOoooooooooooXOOOOOOOOOOOOoO",
"oooooooooooooooooXOOOoOoOoOoOooo",
"ooooooooooooooooo OoOooooooXoXoo",
"XoXXXXXXXXXXXXXXX XXooooXoXXXXXo",
"XXXXXXXXXXXXXXXXX oXoXoXXXXXXXXX",
"XXXXXXXXXXXXXXXXo XXXXXXXXXXXXXX",
"XXXXXXXXXXXXXXXoo oXXXXXXXXXXXXX",
"XXXXXXXXXXXXXXXXo XXXXXXXXXXXXXX",
"XXXXXXXXXXXXXXXoo oXXXXXXXXXXXXX",
"XXXXXXXXXXXXXXXXo XXXXXXXXXXXXXX",
"XXXXXXXXXXXXXXXoo oXXXXXXXXXXXXX",
"X.X.XXXXXXoXoXoXo XXX...........",
".....X.oXoXoooooo oX............",
"                                ",
"OOOOOOOOOOOOOOOOOOOOOOOOOOooooX ",
"OOOOOOOOOOoOoOoOoooooooooooooooX",
"OOOOoOoOoOoooooooooooooooooooooX",
"oOoOooooooooooooooooooooooooooo ",
"oooooooooooooooooXoXoXXXXXXXXXX ",
"oXooooooooooXoXoXXXXXXXXXXXXXX. ",
"XXXoooooooXoXXXXXXXXXXXXXXXXXXX ",
"oXXXoXoXoXXXXXXXXXXXXXXXXXXXXX. ",
"XXXoXoXoXXXXXXXXXXXXXXXXXXXXXoX ",
"oXXXoXoXoXXXXXXXXXXXXXXXXXXXXXo ",
"XXXXXXXXXXXXXXXXXXXXXXXXXXXXXoo ",
"oXXXXXXXXXXXXXXXXXXXXXXXXXXXXXo ",
"XXXXXXXXXXXXXXXXXXXXXXXXXXXXXoo ",
"oXXXXXXXX.X.X.XXXXXXXXXXXXXXoXo ",
"XXXXXX.X.......XXXXXXXoXoXoXooo ",
"o................oXoXoooooooooo ",
"                                "
};
