/* XPM */
static char *_e98d99876b34358de93ed0104b83d48tip59rHwizDqJRqK[] = {
/* columns rows colors chars-per-pixel */
"32 32 5 1 ",
"  c #110B0B",
". c #271616",
"X c #452A26",
"o c #664526",
"O c #79662E",
/* pixels */
" .XooOOOOOOOOooX XooOOOOOOOOOooX",
".XooOOOOOOOooooX.oOOOOOOOOoooooX",
".ooooooooooooooX.ooooooooooooooX",
".ooooooooooooooX.oooooooooooooo.",
" XooooooooooooXX oooooooooooooX.",
" .XXXXoooooooXX. ooooooooooooX..",
"  ..XXXXXXXX.    XoooooooooX..  ",
"   ...            ....   ....   ",
"OOOOOo. oOOOOOOOOOOOoo. XoooOOOO",
"OOooooo.ooOOOOOOOooooXX.oOOOOOOO",
"ooooooo.oooooooooooooXX.oooooooo",
"ooooooo.oooooooooooooXX.oooooooo",
"ooooooX.oooooooX.XooXX..oooooooX",
"oooooXX.ooooooX. .XX....XoooooX.",
"XXXXXX. .XXXXXX   ..... XXXXX...",
"  ....    ...      ...   ...... ",
" OOOOOOOOOOOOooX XoOOOOOOOOOOOoX",
".ooOOOOOOooooooX.oOOOOOOOOoooooo",
".ooooooooooooooX.ooooooooooooooo",
".Xooooooooooooo..ooooooooooooooX",
".XXoooooXoooooo..ooooooooooooX..",
".XXXXXXX.XooooX. oooooooooX.....",
" .XXX......XX... XoooooooX......",
"  ....   ......   ....   ...... ",
"OOOoooX XXoOOOOOOOOOooX XooOOOOO",
"ooooooo.XoOOOOOoooooooo.ooOOOOOo",
"ooooooo.Xoooooooooooooo.oooooooo",
"ooooooo.Xoooooooooooooo oooooooo",
"ooooooX .XooooooooooooX  ..Xoooo",
"XooooXX ..Xooooooooooo.  ...Xooo",
".XXXXX.  ...XXXXXXXXX..   ...XXX",
"  ....     ....     ..      ... "
};
