/* XPM */
static char * cop28_xpm[] = {
"32 32 68 1",
" 	c #FFFFFF",
".	c #005BFF",
"+	c #F8DA00",
"@	c #0066FF",
"#	c #0069FF",
"$	c #0070FF",
"%	c #007AFF",
"&	c #0086F9",
"*	c #274FFF",
"=	c #1954FF",
"-	c #0091F4",
";	c #0F9EED",
">	c #4145FF",
",	c #3E48FF",
"'	c #314DFE",
")	c #009DED",
"!	c #FFF7F7",
"~	c #FF0000",
"{	c #5E39FC",
"]	c #6635F2",
"^	c #7931E1",
"/	c #F795AB",
"(	c #FB000C",
"_	c #752CF1",
":	c #8425E7",
"<	c #9817D1",
"[	c #B000B2",
"}	c #C4008E",
"|	c #D2006E",
"1	c #DD0056",
"2	c #E9003C",
"3	c #F90019",
"4	c #9215DC",
"5	c #A504C8",
"6	c #B700AE",
"7	c #C50092",
"8	c #CE0079",
"9	c #D60064",
"0	c #E3004A",
"a	c #F40024",
"b	c #FF1B1B",
"c	c #FF2600",
"d	c #FF3400",
"e	c #FF2902",
"f	c #00C993",
"g	c #00C5B2",
"h	c #00C0C6",
"i	c #FF5700",
"j	c #74D600",
"k	c #FFD700",
"l	c #FEFEFB",
"m	c #F5FBE9",
"n	c #5AD438",
"o	c #02CE71",
"p	c #00CA98",
"q	c #FF6E00",
"r	c #E3DC00",
"s	c #C5DB00",
"t	c #A0DA00",
"u	c #40D251",
"v	c #61DFAD",
"w	c #FFF2E8",
"x	c #FF7600",
"y	c #FFE3CA",
"z	c #C9DB00",
"A	c #A9DC00",
"B	c #EAF7D6",
"C	c #FF7A02",
"                                ",
"                                ",
"           ....   ....    ....  ",
"          .....  ......  ...... ",
"          .. .. ...  ... ..  ...",
"          .. .. ..    ..      ..",
"          ..... ..    ..      ..",
" ++   ++   .... ..    ..      ..",
"+  + +  +    .. ..    ..      ..",
"+  + +       .. ..    ..      ..",
" ++   +      .. ..    ..      ..",
"+  +   +     .. ...  ... ..  ...",
"+  +    +    ..  ......  ...... ",
" ++  ++++    ..   ....    ....  ",
"                                ",
"    ..@#$%&                     ",
"   *=.@##%&-;                   ",
"   >,'    &-)   !~~~~~~         ",
"   {]^    /(~~~~~~~~~~~!        ",
"   _:<[}|123~~~~~~~~~~~         ",
"    4567890a~~b cde             ",
"           fgh  ii        jj))  ",
"     kl  mnop   qq      j)jj)))j",
"    lk+rstjuv  wxy      jjj))))j",
")      rzAB     C      )))))))jj",
")                      ))))))j))",
")                      jj)))))))",
")                      )jj)))))j",
"                        jj))jj)j",
"                        ))jjj))j",
"                          jj))  ",
"                                "};
