/* XPM */
static char * cursed_sun_xpm[] = {
"32 32 4 1",
" 	c #0000FF",
".	c #FF0000",
"+	c #FFFFFF",
"@	c #000000",
" ..... ..... ...... ..... ..... ",
". ..... ..... .... ..... ..... .",
".. ..... ...        ... ..... ..",
"... .....              ..... ...",
".... ...                ... ....",
"..... .                  . .....",
" .....                    ..... ",
". ...                      ... .",
".. .                        . ..",
"...                          ...",
"...                          ...",
"...      ++          ++      ...",
" .       ++          ++       . ",
".                              .",
"..                            ..",
"..                            ..",
"..                            ..",
"..   +@+                      ..",
".     +++           +@++++     .",
" .    ++@+++@+++@++++@+++     . ",
"...    +++++@+++@@+++++      ...",
"...     ++++++++++++@+       ...",
"...      +@+++@+++++@        ...",
".. .       +++@+++@+        . ..",
". ...          ++          ... .",
" .....                    ..... ",
"..... .                  . .....",
".... ...                ... ....",
"... .....              ..... ...",
".. ..... ...        ... ..... ..",
". ..... ..... .... ..... ..... .",
" ..... ..... ...... ..... ..... "};
