/* XPM */
static char * eco_terrorist_xpm[] = {
"32 32 189 2",
"  	c #5F6267",
". 	c #65696E",
"+ 	c #6E7175",
"@ 	c #656972",
"# 	c #65666B",
"$ 	c #646365",
"% 	c #5A5A5C",
"& 	c #4E4D51",
"* 	c #545355",
"= 	c #565658",
"- 	c #4E4C4D",
"; 	c #6B6D72",
"> 	c #6D717A",
", 	c #6C6B6D",
"' 	c #FFFFFF",
") 	c #534F53",
"! 	c #6B6F78",
"~ 	c #747375",
"{ 	c #726F70",
"] 	c #2F2B2D",
"^ 	c #353035",
"/ 	c #585657",
"( 	c #75767B",
"_ 	c #292326",
": 	c #151419",
"< 	c #1D1917",
"[ 	c #0D0A0B",
"} 	c #69676A",
"| 	c #5F5F61",
"1 	c #382527",
"2 	c #241B1B",
"3 	c #241E22",
"4 	c #454144",
"5 	c #130F12",
"6 	c #625D5E",
"7 	c #76787D",
"8 	c #392D2C",
"9 	c #C6BBB9",
"0 	c #180F10",
"a 	c #453F41",
"b 	c #1C1C1B",
"c 	c #141212",
"d 	c #2B1D1B",
"e 	c #0E0C11",
"f 	c #120C0D",
"g 	c #432E29",
"h 	c #5D443C",
"i 	c #593731",
"j 	c #7D7E82",
"k 	c #675C62",
"l 	c #3C3438",
"m 	c #BF907F",
"n 	c #D59E8E",
"o 	c #B38376",
"p 	c #C49284",
"q 	c #776E76",
"r 	c #34211A",
"s 	c #1B1313",
"t 	c #706E6F",
"u 	c #7F8084",
"v 	c #828286",
"w 	c #D4957E",
"x 	c #BD8D7E",
"y 	c #B88778",
"z 	c #4A2E24",
"A 	c #696462",
"B 	c #85858A",
"C 	c #7B797B",
"D 	c #4C352C",
"E 	c #DDA594",
"F 	c #CCA396",
"G 	c #AB7B6E",
"H 	c #9D7669",
"I 	c #82584B",
"J 	c #4B3226",
"K 	c #6B4C43",
"L 	c #DBA38E",
"M 	c #EDC3B6",
"N 	c #CC958B",
"O 	c #A47469",
"P 	c #6B453D",
"Q 	c #5C4034",
"R 	c #513227",
"S 	c #4B4549",
"T 	c #302322",
"U 	c #CE9079",
"V 	c #D5A393",
"W 	c #E5BDB5",
"X 	c #D5A49B",
"Y 	c #CB9285",
"Z 	c #B17F74",
"` 	c #986D67",
" .	c #775349",
"..	c #65463A",
"+.	c #45241E",
"@.	c #797676",
"#.	c #D69A8B",
"$.	c #E1AFA3",
"%.	c #E4BAAA",
"&.	c #BE9186",
"*.	c #8C635A",
"=.	c #704E47",
"-.	c #797778",
";.	c #D1C3C2",
">.	c #CD9B8A",
",.	c #C6A09D",
"'.	c #AF8E89",
").	c #BD8F83",
"!.	c #C59C97",
"~.	c #BE938A",
"{.	c #6D5048",
"].	c #907F80",
"^.	c #E1A998",
"/.	c #D2A18E",
"(.	c #000000",
"_.	c #B18379",
":.	c #463129",
"<.	c #271B17",
"[.	c #4E392E",
"}.	c #7F7A77",
"|.	c #827C7D",
"1.	c #87888C",
"2.	c #792C2B",
"3.	c #AC7569",
"4.	c #3E2923",
"5.	c #432D24",
"6.	c #89878B",
"7.	c #8B8A8E",
"8.	c #7D3337",
"9.	c #F3C8C2",
"0.	c #DCAA9B",
"a.	c #775250",
"b.	c #63433C",
"c.	c #DEA997",
"d.	c #875B55",
"e.	c #56413C",
"f.	c #443434",
"g.	c #54392D",
"h.	c #361D18",
"i.	c #8D8C91",
"j.	c #E29D97",
"k.	c #B26C66",
"l.	c #DDB7AC",
"m.	c #DBB2A3",
"n.	c #E2B2A5",
"o.	c #DDA499",
"p.	c #553A37",
"q.	c #5B3D33",
"r.	c #584645",
"s.	c #4B2927",
"t.	c #915151",
"u.	c #DBADA3",
"v.	c #E4B4AB",
"w.	c #E1A39B",
"x.	c #644640",
"y.	c #6A4743",
"z.	c #918B8E",
"A.	c #9C766B",
"B.	c #D09A94",
"C.	c #E8C9C9",
"D.	c #724F4B",
"E.	c #52352B",
"F.	c #969599",
"G.	c #CB8880",
"H.	c #935347",
"I.	c #908F94",
"J.	c #939195",
"K.	c #B58582",
"L.	c #D2AAA0",
"M.	c #7F5B52",
"N.	c #633E37",
"O.	c #563C34",
"P.	c #978583",
"Q.	c #DFB9A6",
"R.	c #999497",
"S.	c #332827",
"T.	c #757587",
"U.	c #AA8274",
"V.	c #C7ABA2",
"W.	c #84665F",
"X.	c #5C494A",
"Y.	c #877E88",
"Z.	c #827F81",
"`.	c #E4D3DA",
" +	c #888799",
".+	c #F2F2FA",
"++	c #E9BFAF",
"@+	c #9192A7",
"#+	c #8A8EA7",
"    . . . + @ # # @ @ # # # # # # $ $ $   % & * = % * * * * - - ",
". @ . ; . > @ @ ; ; ; ; ; , , # ; , , # ' ' ' % ' ' ' * ' ' ' ) ",
"@ ! . + , + > @ @ ; ; ~ ~ ; { # & ] & ^ ' $ ' % % % ' % % / ' * ",
"@ > + ( . > > > ; ; ; , _ ^ : < - ^ [ _ ' : ' $ } $ ' $ | ' ' / ",
"; > ( ( . ~ + ( > ( ^ 1 ) & _ 2 3 4 4 ^ ' 5 ' 4 # $ ' $ | 6 ' % ",
"+ > + 7 ; 7 ! ( ~ 2 8 9 0 1 a : 3 b c ] ' ' ' [ ' ' ' $ ' ' ' 6 ",
"7 ( 7 7 { 7 ( ( 3 2 _ 2 d [ 6 0 c c [ e f c c 5 [ , , , , $ $ 6 ",
"7 ' ' ' 7 ' ' ' 3 ' g h i d ' ' ' c 5 [ c [ c [ ' ' ' ; ' ' ' % ",
"7 j ' j { j 7 ' k l m n o p ' q ' r s s 0 f [ c [ 4 ' t , ' , } ",
"u v ' v 7 ' ' ' ] ' w ' ' x ' y ' z ' ' r ' ' c [ ' ' ~ { ' } A ",
"B u ' j C ' # s D ' E F ' p ' G ' H I ' J z ' c [ s ' ~ ~ ' t , ",
"v u ' v j ' ' ' K ' L M ' N ' ' ' O P ' Q R ' f ' ' ' ~ ~ ' ~ t ",
"u u B B j j S T O U V W X Y Z o o `  ...Q R +.c [ s C ~ ~ @.{ t ",
"u B ' ' ' u # T X #.$.%.X V &.o O *.=.Q Q J J 0 f b ~ -.~ ~ ~ ~ ",
"B ' B u u ' v ;.>.L V ,.'.).!.~.{.{...Q Q J J s c 2 ~ -.@.@.~ ~ ",
"u ' v B j v ].1 ^./.(.(.K ..*._.:.r <.(.(.[.D r 0 < ~ -.}.@.@.|.",
"1.B ' v v v 2.=.E N V g (.+./.3.z 4.(.5.:.d D g f r C C C @.@.|.",
"v B B ' 6.7.8.9.0.%.).` a.b.c.d.i e.f.f.r J g.5.h.h.C -.-.( -.@.",
"i.7.B ' B v j.k.E l.%.m.O n.o.P p.q.r.h h ..Q :.i s.|.-.C -.|.@.",
"B 7.i.1.v 6.j.t.^.u.v.w.v.v.v.b.q.q.P x.y.q.Q r s.i @.-.}.-.@.@.",
"B i.1.' 6.z.A.B.E $.u.u.j.$.C.P q.D y.D.K Q [.J +.E.-.~ @.@.@.@.",
"i.i.7.i.z.F.z.G.o.n W B.3.H.Z i h.i b.y.b.q.[.D Q -.C ~ @.@.@.|.",
"i.i.i.i.I.J.i.J.n $.$.K.L.,.H M.D [...N.b.O.E.R i C v C }.~ C ~ ",
"i.i.J.i.i.F.i.i.n w.Y u.A.l.B.O h 4.8 J g.g.D }.C C C C j -.}.@.",
"i.J.J.F.J.F.7.I.P./.p x F Q.N *...Q D Q Q g.D B @.C -.~ 7 ~ ~ { ",
"J.i.F.7.R.J.I.I.6.L /.y 0.m.o  .P Q Q ..g.[.S.C @.{ -.7 -.@.@.~ ",
"I.I.J.F.R.J.7.7.7.>.L c././.o O P g.[.[.i :.| T.C C C -.~ @.~ ~ ",
"F.I.I.F.R.J.7.1.7.^.>.V V ~.O ` E.g.Q +.:.:.A U.-.~ 7 ~ { { ~ t ",
"i.i.i.1.I.7.6.B 6.0.V U.x U.d.h +.:.4.g :.D A -.@.@.7 ~ @.~ @.@.",
"i.i.B i.6.z.7.B v V.%.x W.e.X.X.r.f.[.:.R Y.T.@.|.@.{ ; t @.@.@.",
"B B B v Z.v Y.v v `.m.%.F A.h h r.Q E.E.i. +T.e { , , ; } , t } ",
"F.7.6.i.I.v v v -..+Q.++M X G {.K E.v @+@+#+5 e e k $ A } } A k "};
