/* XPM */
static char *eedca690ef264ea4f861b08f15137deaRCoXgatsJxyVrXlt[] = {
/* columns rows colors chars-per-pixel */
"32 32 6 1 ",
"  c #170C1C",
". c #271936",
"X c #281E5C",
"o c #434670",
"O c #546D89",
"+ c #739DAE",
/* pixels */
" XXooOO+++OOooXX XXooOO+++OOooXX",
".XoO+++++++++OoX.XoO+++++++++OoX",
".oOoooooooooooOo.oOoooooooooooOo",
".ooooooooooooooo.ooooooooooooooo",
".ooooooooooooooo.ooooooooooooooo",
".XoooooooooooooX.XoooooooooooooX",
" XXoooooooooooXX XXoooooooooooXX",
"  ....   ......   ....   ...... ",
"+OOooXX XXooOO+++OOooXX XXooOO++",
"++++OoX.XoO+++++++++OoX.XoO+++++",
"oooooOo.oOoooooooooooOo.oOoooooo",
"ooooooo.ooooooooooooooo.oooooooo",
"ooooooo.ooooooooooooooo.oooooooo",
"ooooooX.XoooooooooooooX.Xooooooo",
"oooooXX XXoooooooooooXX XXoooooo",
"  ....   ......   ....   ...... ",
" XXooOO+++OOooXX XXooOO+++OOooXX",
".XoO+++++++++OoX.XoO+++++++++OoX",
".oOoooooooooooOo.oOoooooooooooOo",
".ooooooooooooooo.ooooooooooooooo",
".ooooooooooooooo.ooooooooooooooo",
".XoooooooooooooX.XoooooooooooooX",
" XXoooooooooooXX XXoooooooooooXX",
"  ....   ......   ....   ...... ",
"+OOooXX XXooOO+++OOooXX XXooOO++",
"++++OoX.XoO+++++++++OoX.XoO+++++",
"oooooOo.oOoooooooooooOo.oOoooooo",
"ooooooo.ooooooooooooooo.oooooooo",
"ooooooo.ooooooooooooooo.oooooooo",
"ooooooX.XoooooooooooooX.Xooooooo",
"oooooXX XXoooooooooooXX XXoooooo",
"  ....   ......   ....   ...... "
};
