/* XPM */
static char *_f0a917e55c34bb495868b02d9fc5df2JYGxZIEDxbqcWKeu[] = {
/* columns rows colors chars-per-pixel */
"32 32 7 1 ",
"  c #131A25",
". c #26334A",
"X c #386179",
"o c #567E9F",
"O c #688296",
"+ c #AFBDC7",
"@ c #A0C1DE",
/* pixels */
"                                ",
".              ..              .",
". ooXXoXXXXXXX.O. ooXXXXXoXXXX.O",
". oooXXoXXXXXX.+. oooXXXXXoXXX.+",
". XoooXXoXXXXX.+. Xo@oXXXXXoXX.+",
". XXoooXXoXXXX.+. XXo@oXXXXXoX.+",
". XXXoooXXoXXX.+. XXXo@oXXXXXo.+",
". XXXXoooXXoXX.+. XXXXo@oXXXXX.+",
". XXXXXoooXXoX.+. XXXXXo@oXXXX.+",
". XXXXXXoooXXo.+. XXXXXXo@oXXX.+",
". oXXXXXXo@oXX.+. XXXXXXXo@oXX.+",
". XoXXXXXXo@oX.+. XXXXXXXXo@oX.+",
". XXoXXXXXXo@o.+. XXXXXXXXXooo.+",
". XXXoXXXXXXo@.+. oXXXXXXXXXoo.+",
". .............+. .............+",
"..O+++++++++++OO..O+++++++++++OO",
"................................",
".              ..              .",
".             .O.             .O",
". Xo@oXXXXoXXX.+. Xo@oXXXXoXXX.+",
". XXo@oXXXXoXX.+. XXo@oXXXXoXX.+",
". XXXo@oXXXXoX.+. XXXoooXXXXoX.+",
". XXXXo@oXXXXo.+. XXXXoooXXXXo.+",
". XXXXXo@oXXXX.+. XXXXXoooXXXX.+",
". XXXXXXoooXXX.+. XXXXXXoooXXX.+",
". XXXXXXXoooXX.+. XXXXXXXoooXX.+",
". oXXXXXXXoooX.+. oXXXXXXXoooX.+",
". XoXXXXXXXooo.+. XoXXXXXXXooo.+",
". .............+. .............O",
"++O+++++++++++OO++++++++++++++++",
"................................",
"................................"
};
